<svg width="45" height="45" viewBox="0 0 45 45" fill="none" xmlns="http://www.w3.org/2000/svg">
<g id="Menu / More_Grid_Big">
<g id="Vector">
<path d="M31.875 33.75C31.875 34.7855 32.7145 35.625 33.75 35.625C34.7855 35.625 35.625 34.7855 35.625 33.75C35.625 32.7145 34.7855 31.875 33.75 31.875C32.7145 31.875 31.875 32.7145 31.875 33.75Z" stroke="white" stroke-width="2" stroke-linecap="round" stroke-linejoin="round"/>
<path d="M20.625 33.75C20.625 34.7855 21.4645 35.625 22.5 35.625C23.5355 35.625 24.375 34.7855 24.375 33.75C24.375 32.7145 23.5355 31.875 22.5 31.875C21.4645 31.875 20.625 32.7145 20.625 33.75Z" stroke="white" stroke-width="2" stroke-linecap="round" stroke-linejoin="round"/>
<path d="M9.375 33.75C9.375 34.7855 10.2145 35.625 11.25 35.625C12.2855 35.625 13.125 34.7855 13.125 33.75C13.125 32.7145 12.2855 31.875 11.25 31.875C10.2145 31.875 9.375 32.7145 9.375 33.75Z" stroke="white" stroke-width="2" stroke-linecap="round" stroke-linejoin="round"/>
<path d="M31.875 22.5C31.875 23.5355 32.7145 24.375 33.75 24.375C34.7855 24.375 35.625 23.5355 35.625 22.5C35.625 21.4645 34.7855 20.625 33.75 20.625C32.7145 20.625 31.875 21.4645 31.875 22.5Z" stroke="white" stroke-width="2" stroke-linecap="round" stroke-linejoin="round"/>
<path d="M20.625 22.5C20.625 23.5355 21.4645 24.375 22.5 24.375C23.5355 24.375 24.375 23.5355 24.375 22.5C24.375 21.4645 23.5355 20.625 22.5 20.625C21.4645 20.625 20.625 21.4645 20.625 22.5Z" stroke="white" stroke-width="2" stroke-linecap="round" stroke-linejoin="round"/>
<path d="M9.375 22.5C9.375 23.5355 10.2145 24.375 11.25 24.375C12.2855 24.375 13.125 23.5355 13.125 22.5C13.125 21.4645 12.2855 20.625 11.25 20.625C10.2145 20.625 9.375 21.4645 9.375 22.5Z" stroke="white" stroke-width="2" stroke-linecap="round" stroke-linejoin="round"/>
<path d="M31.875 11.25C31.875 12.2855 32.7145 13.125 33.75 13.125C34.7855 13.125 35.625 12.2855 35.625 11.25C35.625 10.2145 34.7855 9.375 33.75 9.375C32.7145 9.375 31.875 10.2145 31.875 11.25Z" stroke="white" stroke-width="2" stroke-linecap="round" stroke-linejoin="round"/>
<path d="M20.625 11.25C20.625 12.2855 21.4645 13.125 22.5 13.125C23.5355 13.125 24.375 12.2855 24.375 11.25C24.375 10.2145 23.5355 9.375 22.5 9.375C21.4645 9.375 20.625 10.2145 20.625 11.25Z" stroke="white" stroke-width="2" stroke-linecap="round" stroke-linejoin="round"/>
<path d="M9.375 11.25C9.375 12.2855 10.2145 13.125 11.25 13.125C12.2855 13.125 13.125 12.2855 13.125 11.25C13.125 10.2145 12.2855 9.375 11.25 9.375C10.2145 9.375 9.375 10.2145 9.375 11.25Z" stroke="white" stroke-width="2" stroke-linecap="round" stroke-linejoin="round"/>
</g>
</g>
</svg>
